<mxfile host="app.diagrams.net" modified="2024-06-15T09:19:18.848Z" agent="Mozilla/5.0 (Windows NT 10.0; Win64; x64) AppleWebKit/537.36 (KHTML, like Gecko) Chrome/125.0.0.0 Safari/537.36" etag="auc6EqM8C04U9oU7ojPH" version="24.5.3" type="device">
  <diagram name="Seite-1" id="2IXvw_5-a2KiOUsxXS1x">
    <mxGraphModel dx="1050" dy="530" grid="1" gridSize="10" guides="1" tooltips="1" connect="1" arrows="1" fold="1" page="1" pageScale="1" pageWidth="1500" pageHeight="850" math="0" shadow="0">
      <root>
        <mxCell id="0" />
        <mxCell id="1" parent="0" />
        <mxCell id="_sCfoK6OZnLPwZeo6e0T-1" value="" style="ellipse;html=1;shape=startState;fillColor=#000000;strokeColor=#ff0000;" vertex="1" parent="1">
          <mxGeometry x="340" y="40" width="30" height="30" as="geometry" />
        </mxCell>
        <mxCell id="_sCfoK6OZnLPwZeo6e0T-2" value="" style="edgeStyle=orthogonalEdgeStyle;html=1;verticalAlign=bottom;endArrow=open;endSize=8;strokeColor=#ff0000;rounded=0;" edge="1" source="_sCfoK6OZnLPwZeo6e0T-1" parent="1" target="_sCfoK6OZnLPwZeo6e0T-4">
          <mxGeometry relative="1" as="geometry">
            <mxPoint x="355" y="130" as="targetPoint" />
          </mxGeometry>
        </mxCell>
        <mxCell id="_sCfoK6OZnLPwZeo6e0T-3" value="" style="ellipse;html=1;shape=endState;fillColor=#000000;strokeColor=#ff0000;" vertex="1" parent="1">
          <mxGeometry x="340" y="440" width="30" height="30" as="geometry" />
        </mxCell>
        <mxCell id="_sCfoK6OZnLPwZeo6e0T-4" value="BeforeChoice" style="rounded=1;whiteSpace=wrap;html=1;arcSize=40;fontColor=#000000;fillColor=#ffffc0;strokeColor=#ff0000;" vertex="1" parent="1">
          <mxGeometry x="295" y="120" width="120" height="40" as="geometry" />
        </mxCell>
        <mxCell id="_sCfoK6OZnLPwZeo6e0T-5" value="Condition" style="rhombus;whiteSpace=wrap;html=1;fontColor=#000000;fillColor=#ffffc0;strokeColor=#ff0000;" vertex="1" parent="1">
          <mxGeometry x="315" y="220" width="80" height="40" as="geometry" />
        </mxCell>
        <mxCell id="_sCfoK6OZnLPwZeo6e0T-6" value="no" style="edgeStyle=orthogonalEdgeStyle;html=1;align=left;verticalAlign=bottom;endArrow=open;endSize=8;strokeColor=#ff0000;rounded=0;" edge="1" source="_sCfoK6OZnLPwZeo6e0T-5" parent="1" target="_sCfoK6OZnLPwZeo6e0T-9">
          <mxGeometry x="-1" relative="1" as="geometry">
            <mxPoint x="500" y="240" as="targetPoint" />
          </mxGeometry>
        </mxCell>
        <mxCell id="_sCfoK6OZnLPwZeo6e0T-7" value="yes" style="edgeStyle=orthogonalEdgeStyle;html=1;align=left;verticalAlign=top;endArrow=open;endSize=8;strokeColor=#ff0000;rounded=0;" edge="1" source="_sCfoK6OZnLPwZeo6e0T-5" parent="1" target="_sCfoK6OZnLPwZeo6e0T-10">
          <mxGeometry x="-1" relative="1" as="geometry">
            <mxPoint x="355" y="330" as="targetPoint" />
          </mxGeometry>
        </mxCell>
        <mxCell id="_sCfoK6OZnLPwZeo6e0T-12" style="edgeStyle=orthogonalEdgeStyle;rounded=0;orthogonalLoop=1;jettySize=auto;html=1;entryX=1;entryY=0.5;entryDx=0;entryDy=0;exitX=0.5;exitY=1;exitDx=0;exitDy=0;" edge="1" parent="1" source="_sCfoK6OZnLPwZeo6e0T-9" target="_sCfoK6OZnLPwZeo6e0T-3">
          <mxGeometry relative="1" as="geometry" />
        </mxCell>
        <mxCell id="_sCfoK6OZnLPwZeo6e0T-9" value="ChoiceNo" style="rounded=1;whiteSpace=wrap;html=1;arcSize=40;fontColor=#000000;fillColor=#ffffc0;strokeColor=#ff0000;" vertex="1" parent="1">
          <mxGeometry x="440" y="220" width="120" height="40" as="geometry" />
        </mxCell>
        <mxCell id="_sCfoK6OZnLPwZeo6e0T-11" style="edgeStyle=orthogonalEdgeStyle;rounded=0;orthogonalLoop=1;jettySize=auto;html=1;entryX=0.5;entryY=0;entryDx=0;entryDy=0;" edge="1" parent="1" source="_sCfoK6OZnLPwZeo6e0T-10" target="_sCfoK6OZnLPwZeo6e0T-3">
          <mxGeometry relative="1" as="geometry" />
        </mxCell>
        <mxCell id="_sCfoK6OZnLPwZeo6e0T-10" value="ChoiceYes" style="rounded=1;whiteSpace=wrap;html=1;arcSize=40;fontColor=#000000;fillColor=#ffffc0;strokeColor=#ff0000;" vertex="1" parent="1">
          <mxGeometry x="295" y="310" width="120" height="40" as="geometry" />
        </mxCell>
        <mxCell id="_sCfoK6OZnLPwZeo6e0T-14" value="" style="edgeStyle=orthogonalEdgeStyle;html=1;verticalAlign=bottom;endArrow=open;endSize=8;strokeColor=#ff0000;rounded=0;exitX=0.5;exitY=1;exitDx=0;exitDy=0;entryX=0.5;entryY=0;entryDx=0;entryDy=0;" edge="1" parent="1" source="_sCfoK6OZnLPwZeo6e0T-4" target="_sCfoK6OZnLPwZeo6e0T-5">
          <mxGeometry relative="1" as="geometry">
            <mxPoint x="365" y="130" as="targetPoint" />
            <mxPoint x="365" y="80" as="sourcePoint" />
          </mxGeometry>
        </mxCell>
        <mxCell id="_sCfoK6OZnLPwZeo6e0T-15" value="toCondition" style="edgeLabel;html=1;align=center;verticalAlign=middle;resizable=0;points=[];" vertex="1" connectable="0" parent="_sCfoK6OZnLPwZeo6e0T-14">
          <mxGeometry x="-0.24" relative="1" as="geometry">
            <mxPoint as="offset" />
          </mxGeometry>
        </mxCell>
      </root>
    </mxGraphModel>
  </diagram>
</mxfile>
